<svg width="76" height="84" viewBox="0 0 76 84" fill="none" xmlns="http://www.w3.org/2000/svg">
<g clip-path="url(#clip0_304_18)">
<path d="M39.1066 80.6569C38.2272 81.118 37.1766 81.1141 36.3006 80.6465L4.58717 63.7163C3.61017 63.1947 3 62.1773 3 61.0698V24.4186C3 23.3496 3.56889 22.3613 4.49333 21.8244L36.2068 3.40578C37.1312 2.8689 38.2714 2.86449 39.2 3.3942L71.4865 21.8128C72.4223 22.3466 73 23.3413 73 24.4186V61.0698C73 62.1852 72.3811 63.2086 71.3932 63.7266L39.1066 80.6569Z" fill="#710B33" stroke="#4E002E" stroke-width="6" stroke-linejoin="round"/>
<path d="M45.88 63H30.4V59.88L35.44 58.74V24.48L30.4 23.28V20.16H45.88V23.28L40.84 24.48V58.74L45.88 59.88V63Z" fill="white"/>
</g>
<defs>
<clipPath id="clip0_304_18">
<rect width="76" height="84" fill="white"/>
</clipPath>
</defs>
</svg>
